<svg xmlns="http://www.w3.org/2000/svg" xmlns:xlink="http://www.w3.org/1999/xlink" width="500" zoomAndPan="magnify" viewBox="0 0 375 74.999997" height="100" preserveAspectRatio="xMidYMid meet" version="1.0"><defs><g/><clipPath id="102601d1f6"><path d="M 184 12 L 239.515625 12 L 239.515625 63 L 184 63 Z M 184 12 " clip-rule="nonzero"/></clipPath><clipPath id="fa8162a37a"><path d="M 44.953125 11.914062 L 99.425781 11.914062 L 99.425781 66.386719 L 44.953125 66.386719 Z M 44.953125 11.914062 " clip-rule="nonzero"/></clipPath></defs><g fill="#000000" fill-opacity="1"><g transform="translate(107.0414, 54.213096)"><g><path d="M 12.828125 0.421875 C 10.816406 0.421875 9.03125 0.175781 7.46875 -0.3125 C 5.90625 -0.8125 4.601562 -1.460938 3.5625 -2.265625 C 2.519531 -3.078125 1.722656 -3.96875 1.171875 -4.9375 L 4.3125 -8.765625 L 4.8125 -8.765625 C 5.6875 -7.472656 6.789062 -6.441406 8.125 -5.671875 C 9.46875 -4.910156 11.035156 -4.53125 12.828125 -4.53125 C 14.359375 -4.53125 15.515625 -4.851562 16.296875 -5.5 C 17.078125 -6.144531 17.46875 -7.035156 17.46875 -8.171875 C 17.46875 -8.859375 17.335938 -9.429688 17.078125 -9.890625 C 16.828125 -10.359375 16.410156 -10.753906 15.828125 -11.078125 C 15.253906 -11.410156 14.472656 -11.695312 13.484375 -11.9375 L 9.765625 -12.796875 C 7.160156 -13.390625 5.222656 -14.375 3.953125 -15.75 C 2.679688 -17.125 2.046875 -18.914062 2.046875 -21.125 C 2.046875 -22.757812 2.453125 -24.195312 3.265625 -25.4375 C 4.085938 -26.675781 5.28125 -27.640625 6.84375 -28.328125 C 8.40625 -29.015625 10.273438 -29.359375 12.453125 -29.359375 C 14.679688 -29.359375 16.59375 -29.0625 18.1875 -28.46875 C 19.78125 -27.882812 21.125 -26.988281 22.21875 -25.78125 L 19.375 -21.890625 L 18.890625 -21.890625 C 18.066406 -22.753906 17.128906 -23.398438 16.078125 -23.828125 C 15.023438 -24.253906 13.816406 -24.46875 12.453125 -24.46875 C 10.878906 -24.46875 9.679688 -24.191406 8.859375 -23.640625 C 8.046875 -23.085938 7.640625 -22.320312 7.640625 -21.34375 C 7.640625 -20.425781 7.925781 -19.695312 8.5 -19.15625 C 9.070312 -18.625 10.066406 -18.203125 11.484375 -17.890625 L 15.28125 -17.109375 C 18.09375 -16.515625 20.128906 -15.503906 21.390625 -14.078125 C 22.660156 -12.660156 23.296875 -10.8125 23.296875 -8.53125 C 23.296875 -6.726562 22.90625 -5.15625 22.125 -3.8125 C 21.351562 -2.46875 20.179688 -1.425781 18.609375 -0.6875 C 17.035156 0.0507812 15.109375 0.421875 12.828125 0.421875 Z M 12.828125 0.421875 "/></g></g></g><g fill="#000000" fill-opacity="1"><g transform="translate(131.909595, 54.213096)"><g><path d="M 14.953125 -28.9375 C 17.023438 -28.9375 18.796875 -28.554688 20.265625 -27.796875 C 21.734375 -27.046875 22.84375 -25.984375 23.59375 -24.609375 C 24.351562 -23.242188 24.734375 -21.660156 24.734375 -19.859375 C 24.734375 -18.046875 24.351562 -16.457031 23.59375 -15.09375 C 22.84375 -13.738281 21.734375 -12.679688 20.265625 -11.921875 C 18.796875 -11.171875 17.023438 -10.796875 14.953125 -10.796875 L 9.484375 -10.796875 L 9.484375 0 L 3.765625 0 L 3.765625 -28.9375 Z M 14.203125 -15.328125 C 17.378906 -15.328125 18.96875 -16.835938 18.96875 -19.859375 C 18.96875 -22.890625 17.378906 -24.40625 14.203125 -24.40625 L 9.484375 -24.40625 L 9.484375 -15.328125 Z M 14.203125 -15.328125 "/></g></g></g><g fill="#000000" fill-opacity="1"><g transform="translate(158.361753, 54.213096)"><g><path d="M 9.484375 -12.703125 L 9.484375 -4.796875 L 23.296875 -4.796875 L 23.296875 0 L 3.765625 0 L 3.765625 -28.9375 L 22.984375 -28.9375 L 22.984375 -24.15625 L 9.484375 -24.15625 L 9.484375 -17.390625 L 21.28125 -17.390625 L 21.28125 -12.703125 Z M 9.484375 -12.703125 "/></g></g></g><g fill="#000000" fill-opacity="1"><g transform="translate(183.24531, 54.213096)"><g/></g></g><g fill="#000000" fill-opacity="1"><g transform="translate(192.808484, 54.213096)"><g/></g></g><g fill="#000000" fill-opacity="1"><g transform="translate(202.371657, 54.213096)"><g/></g></g><g fill="#000000" fill-opacity="1"><g transform="translate(211.934831, 54.213096)"><g/></g></g><g fill="#000000" fill-opacity="1"><g transform="translate(221.498004, 54.213096)"><g/></g></g><g fill="#000000" fill-opacity="1"><g transform="translate(231.061178, 54.213096)"><g/></g></g><g fill="#000000" fill-opacity="1"><g transform="translate(240.618044, 54.213096)"><g><path d="M 3.765625 0 L 3.765625 -28.9375 L 9.484375 -28.9375 L 9.484375 -17.125 L 10.109375 -17.125 L 19.78125 -28.9375 L 25.640625 -28.9375 L 25.640625 -28.453125 L 14.984375 -15.28125 L 26.75 -0.5 L 26.75 0 L 20.28125 0 L 10.109375 -12.5 L 9.484375 -12.5 L 9.484375 0 Z M 3.765625 0 "/></g></g></g><g fill="#000000" fill-opacity="1"><g transform="translate(267.3672, 54.213096)"><g><path d="M 9.484375 0 L 3.765625 0 L 3.765625 -28.9375 L 9.484375 -28.9375 Z M 9.484375 0 "/></g></g></g><g fill="#000000" fill-opacity="1"><g transform="translate(280.632878, 54.213096)"><g><path d="M 22.109375 -28.9375 L 22.109375 -24.15625 L 9.484375 -24.15625 L 9.484375 -16.484375 L 20.953125 -16.484375 L 20.953125 -11.765625 L 9.484375 -11.765625 L 9.484375 0 L 3.765625 0 L 3.765625 -28.9375 Z M 22.109375 -28.9375 "/></g></g></g><g fill="#000000" fill-opacity="1"><g transform="translate(304.035909, 54.213096)"><g><path d="M 15.859375 0 L 10.140625 0 L 10.140625 -11.359375 L 0.140625 -28.9375 L 6.28125 -28.9375 L 12.890625 -17.5625 L 13.390625 -17.5625 L 19.859375 -28.9375 L 25.859375 -28.9375 L 15.859375 -11.359375 Z M 15.859375 0 "/></g></g></g><g clip-path="url(#102601d1f6)"><path fill="#feba00" d="M 219.839844 59.046875 C 222.992188 62.140625 228.394531 63.308594 233.003906 60.804688 C 236.449219 58.933594 239.496094 55.085938 239.121094 49.636719 C 238.871094 45.945312 232.539062 35.410156 228.957031 29.492188 C 226.253906 25.015625 224 20.164062 220.183594 16.503906 C 212.25 8.90625 202.4375 13.328125 199.199219 21.570312 C 201.917969 20.089844 203.945312 19.097656 208.785156 19.9375 C 217.613281 21.464844 222.125 33.585938 226.230469 40.800781 C 227.230469 42.550781 228.203125 44.269531 229.261719 46.097656 C 229.925781 47.242188 230.679688 48.585938 230.992188 49.867188 C 231.851562 53.40625 228.394531 55.300781 225.429688 52.789062 C 221.546875 49.496094 217.621094 40.453125 215.746094 37.09375 C 212.699219 31.613281 209.035156 25.921875 201.179688 27.257812 C 193.332031 28.601562 190.179688 36.847656 185.929688 44.453125 C 181 53.257812 187.726562 63.375 197.570312 61.988281 C 200.464844 61.582031 202.460938 60.277344 204.015625 58.5625 C 205.074219 57.40625 207.304688 54.082031 207.886719 52.582031 L 203.414062 44.792969 C 203.335938 44.859375 203.296875 44.921875 203.070312 45.199219 L 200.097656 50.28125 C 196.730469 56.085938 191.976562 54.65625 192.289062 50.757812 C 192.511719 47.871094 195.316406 43.976562 196.183594 42.488281 C 198.75 38.066406 202.636719 30.9375 207.261719 38.238281 C 208.105469 39.578125 209.035156 41.367188 209.660156 42.441406 C 210.261719 43.472656 210.734375 44.339844 211.320312 45.375 C 214.046875 49.675781 216.34375 55.617188 219.839844 59.046875 Z M 219.839844 59.046875 " fill-opacity="1" fill-rule="evenodd"/></g><g clip-path="url(#fa8162a37a)"><path fill="#feba00" d="M 72.167969 11.898438 C 57.128906 11.898438 44.9375 24.089844 44.9375 39.128906 C 44.9375 54.164062 57.128906 66.355469 72.167969 66.355469 C 87.203125 66.355469 99.394531 54.164062 99.394531 39.128906 C 99.394531 24.089844 87.203125 11.898438 72.167969 11.898438 Z M 72.347656 39.53125 L 72.347656 42.628906 C 72.347656 43.070312 71.988281 43.429688 71.550781 43.429688 L 67.320312 43.429688 L 67.320312 48.738281 L 58.964844 48.738281 L 58.964844 41.953125 L 58.445312 41.53125 C 56.472656 39.917969 55.339844 37.539062 55.339844 34.996094 C 55.339844 30.34375 59.125 26.5625 63.773438 26.5625 C 67.519531 26.5625 70.828125 29.050781 71.871094 32.636719 L 71.976562 34.996094 L 74.234375 38.160156 Z M 81.308594 43.886719 L 79.308594 41.886719 C 80.582031 40.613281 80.582031 38.539062 79.308594 37.265625 L 81.308594 35.269531 C 83.683594 37.644531 83.683594 41.507812 81.308594 43.886719 Z M 83.121094 44.894531 C 86.054688 41.960938 86.054688 37.191406 83.121094 34.257812 L 85.121094 32.257812 C 89.152344 36.292969 89.152344 42.859375 85.121094 46.890625 Z M 89.5 49.710938 L 87.503906 47.714844 C 91.992188 43.226562 91.992188 35.925781 87.503906 31.4375 L 89.5 29.441406 C 95.089844 35.027344 95.089844 44.125 89.5 49.710938 Z M 89.5 49.710938 " fill-opacity="1" fill-rule="nonzero"/></g></svg>